<mxfile host="app.diagrams.net" modified="2021-06-12T03:10:59.963Z" agent="5.0 (Macintosh; Intel Mac OS X 10_15_7) AppleWebKit/605.1.15 (KHTML, like Gecko) Version/14.1.1 Safari/605.1.15" etag="1yXwE8yLBGomUmIDPh6i" version="14.7.7" type="github">
  <diagram name="Page-1" id="c7488fd3-1785-93aa-aadb-54a6760d102a">
    <mxGraphModel dx="584" dy="477" grid="1" gridSize="10" guides="1" tooltips="1" connect="1" arrows="1" fold="1" page="1" pageScale="1" pageWidth="1100" pageHeight="850" background="none" math="0" shadow="0">
      <root>
        <mxCell id="0" />
        <mxCell id="1" parent="0" />
        <mxCell id="2b4e8129b02d487f-1" value="Flowchart of the Research" style="swimlane;html=1;childLayout=stackLayout;horizontal=1;startSize=20;horizontalStack=0;rounded=0;shadow=0;labelBackgroundColor=none;strokeWidth=1;fontFamily=Verdana;fontSize=8;align=center;fillColor=#f5f5f5;strokeColor=#666666;fontColor=#333333;" parent="1" vertex="1">
          <mxGeometry x="180" y="70" width="400" height="590" as="geometry" />
        </mxCell>
        <mxCell id="2b4e8129b02d487f-2" value="First Stage&lt;br&gt;" style="swimlane;html=1;startSize=20;horizontal=0;fillColor=#f5f5f5;strokeColor=#666666;rounded=0;fontColor=#333333;" parent="2b4e8129b02d487f-1" vertex="1">
          <mxGeometry y="20" width="400" height="120" as="geometry" />
        </mxCell>
        <mxCell id="2b4e8129b02d487f-6" value="Data Preparation" style="rounded=1;whiteSpace=wrap;html=1;shadow=0;labelBackgroundColor=none;strokeWidth=1;fontFamily=Verdana;fontSize=8;align=center;fillColor=#dae8fc;strokeColor=#6c8ebf;" parent="2b4e8129b02d487f-2" vertex="1">
          <mxGeometry x="40" y="36.99999999999997" width="70" height="37" as="geometry" />
        </mxCell>
        <mxCell id="zZcNKYi_-tcSvA1h87jL-3" value="SL graph" style="rounded=1;whiteSpace=wrap;html=1;shadow=0;labelBackgroundColor=none;strokeWidth=1;fontFamily=Verdana;fontSize=8;align=center;fillColor=#b0e3e6;strokeColor=#0e8088;" parent="2b4e8129b02d487f-2" vertex="1">
          <mxGeometry x="310" y="9.999999999999972" width="70" height="37" as="geometry" />
        </mxCell>
        <mxCell id="zZcNKYi_-tcSvA1h87jL-5" value="SynlethKG" style="rounded=1;whiteSpace=wrap;html=1;shadow=0;labelBackgroundColor=none;strokeWidth=1;fontFamily=Verdana;fontSize=8;align=center;fillColor=#b0e3e6;strokeColor=#0e8088;" parent="2b4e8129b02d487f-2" vertex="1">
          <mxGeometry x="310" y="66.99999999999997" width="70" height="37" as="geometry" />
        </mxCell>
        <mxCell id="GFOZkpKY2ZgL8WLPGmoW-40" style="edgeStyle=orthogonalEdgeStyle;rounded=0;orthogonalLoop=1;jettySize=auto;html=1;exitX=1;exitY=0.5;exitDx=0;exitDy=0;entryX=0;entryY=0.5;entryDx=0;entryDy=0;" parent="2b4e8129b02d487f-2" source="zZcNKYi_-tcSvA1h87jL-7" target="zZcNKYi_-tcSvA1h87jL-5" edge="1">
          <mxGeometry relative="1" as="geometry" />
        </mxCell>
        <mxCell id="GFOZkpKY2ZgL8WLPGmoW-42" style="edgeStyle=orthogonalEdgeStyle;rounded=0;orthogonalLoop=1;jettySize=auto;html=1;exitX=1;exitY=0.5;exitDx=0;exitDy=0;entryX=0;entryY=0.5;entryDx=0;entryDy=0;" parent="2b4e8129b02d487f-2" source="zZcNKYi_-tcSvA1h87jL-7" target="zZcNKYi_-tcSvA1h87jL-3" edge="1">
          <mxGeometry relative="1" as="geometry" />
        </mxCell>
        <mxCell id="zZcNKYi_-tcSvA1h87jL-7" value="SynLethDB" style="rounded=1;whiteSpace=wrap;html=1;shadow=0;labelBackgroundColor=none;strokeWidth=1;fontFamily=Verdana;fontSize=8;align=center;fillColor=#f8cecc;strokeColor=#b85450;" parent="2b4e8129b02d487f-2" vertex="1">
          <mxGeometry x="150" y="37" width="80" height="37" as="geometry" />
        </mxCell>
        <mxCell id="zZcNKYi_-tcSvA1h87jL-8" value="" style="edgeStyle=orthogonalEdgeStyle;rounded=0;orthogonalLoop=1;jettySize=auto;html=1;" parent="2b4e8129b02d487f-2" source="2b4e8129b02d487f-6" target="zZcNKYi_-tcSvA1h87jL-7" edge="1">
          <mxGeometry relative="1" as="geometry" />
        </mxCell>
        <mxCell id="2b4e8129b02d487f-3" value="Second Stage" style="swimlane;html=1;startSize=20;horizontal=0;fillColor=#f5f5f5;strokeColor=#666666;fontColor=#333333;" parent="2b4e8129b02d487f-1" vertex="1">
          <mxGeometry y="140" width="400" height="150" as="geometry" />
        </mxCell>
        <mxCell id="GFOZkpKY2ZgL8WLPGmoW-52" style="edgeStyle=orthogonalEdgeStyle;rounded=0;orthogonalLoop=1;jettySize=auto;html=1;exitX=1;exitY=0.5;exitDx=0;exitDy=0;entryX=0;entryY=0.5;entryDx=0;entryDy=0;" parent="2b4e8129b02d487f-3" source="2b4e8129b02d487f-12" target="zZcNKYi_-tcSvA1h87jL-9" edge="1">
          <mxGeometry relative="1" as="geometry" />
        </mxCell>
        <mxCell id="2b4e8129b02d487f-12" value="Model Building" style="rounded=1;whiteSpace=wrap;html=1;shadow=0;labelBackgroundColor=none;strokeWidth=1;fontFamily=Verdana;fontSize=8;align=center;fillColor=#dae8fc;strokeColor=#6c8ebf;" parent="2b4e8129b02d487f-3" vertex="1">
          <mxGeometry x="40" y="49.99999999999996" width="70" height="37" as="geometry" />
        </mxCell>
        <mxCell id="zZcNKYi_-tcSvA1h87jL-9" value="gene-speciﬁc sub-graph &amp;nbsp;for each gene" style="rounded=1;whiteSpace=wrap;html=1;shadow=0;labelBackgroundColor=none;strokeWidth=1;fontFamily=Verdana;fontSize=8;align=center;fillColor=#d5e8d4;strokeColor=#82b366;" parent="2b4e8129b02d487f-3" vertex="1">
          <mxGeometry x="150" y="12.999999999999943" width="70" height="37" as="geometry" />
        </mxCell>
        <mxCell id="GFOZkpKY2ZgL8WLPGmoW-53" style="edgeStyle=orthogonalEdgeStyle;rounded=0;orthogonalLoop=1;jettySize=auto;html=1;exitX=1;exitY=0.5;exitDx=0;exitDy=0;entryX=0.5;entryY=1;entryDx=0;entryDy=0;" parent="2b4e8129b02d487f-3" source="zZcNKYi_-tcSvA1h87jL-11" target="zZcNKYi_-tcSvA1h87jL-13" edge="1">
          <mxGeometry relative="1" as="geometry" />
        </mxCell>
        <mxCell id="zZcNKYi_-tcSvA1h87jL-11" value="GNN message passing" style="rounded=1;whiteSpace=wrap;html=1;shadow=0;labelBackgroundColor=none;strokeWidth=1;fontFamily=Verdana;fontSize=8;align=center;fillColor=#d5e8d4;strokeColor=#82b366;" parent="2b4e8129b02d487f-3" vertex="1">
          <mxGeometry x="150" y="99.99999999999994" width="70" height="37" as="geometry" />
        </mxCell>
        <mxCell id="zZcNKYi_-tcSvA1h87jL-12" value="" style="edgeStyle=orthogonalEdgeStyle;rounded=0;orthogonalLoop=1;jettySize=auto;html=1;" parent="2b4e8129b02d487f-3" source="zZcNKYi_-tcSvA1h87jL-9" target="zZcNKYi_-tcSvA1h87jL-11" edge="1">
          <mxGeometry relative="1" as="geometry" />
        </mxCell>
        <mxCell id="zZcNKYi_-tcSvA1h87jL-13" value="gene-speciﬁc sub-graph &amp;nbsp;for each gene" style="rounded=1;whiteSpace=wrap;html=1;shadow=0;labelBackgroundColor=none;strokeWidth=1;fontFamily=Verdana;fontSize=8;align=center;fillColor=#d5e8d4;strokeColor=#82b366;" parent="2b4e8129b02d487f-3" vertex="1">
          <mxGeometry x="240" y="49.99999999999994" width="70" height="37" as="geometry" />
        </mxCell>
        <mxCell id="2b4e8129b02d487f-4" value="Third Stage" style="swimlane;html=1;startSize=20;horizontal=0;fillColor=#f5f5f5;strokeColor=#666666;fontColor=#333333;" parent="2b4e8129b02d487f-1" vertex="1">
          <mxGeometry y="290" width="400" height="150" as="geometry" />
        </mxCell>
        <mxCell id="hMXPoq0rUOks4ZIrgKfc-11" style="edgeStyle=orthogonalEdgeStyle;rounded=0;orthogonalLoop=1;jettySize=auto;html=1;exitX=1;exitY=0.5;exitDx=0;exitDy=0;entryX=0;entryY=0.5;entryDx=0;entryDy=0;" edge="1" parent="2b4e8129b02d487f-4" source="2b4e8129b02d487f-14" target="GFOZkpKY2ZgL8WLPGmoW-12">
          <mxGeometry relative="1" as="geometry" />
        </mxCell>
        <mxCell id="hMXPoq0rUOks4ZIrgKfc-22" style="edgeStyle=orthogonalEdgeStyle;rounded=0;orthogonalLoop=1;jettySize=auto;html=1;exitX=1;exitY=0.5;exitDx=0;exitDy=0;entryX=0;entryY=0.5;entryDx=0;entryDy=0;" edge="1" parent="2b4e8129b02d487f-4" source="2b4e8129b02d487f-14" target="hMXPoq0rUOks4ZIrgKfc-20">
          <mxGeometry relative="1" as="geometry" />
        </mxCell>
        <mxCell id="2b4e8129b02d487f-14" value="Model Evaluation" style="rounded=1;whiteSpace=wrap;html=1;shadow=0;labelBackgroundColor=none;strokeWidth=1;fontFamily=Verdana;fontSize=8;align=center;fillColor=#dae8fc;strokeColor=#6c8ebf;" parent="2b4e8129b02d487f-4" vertex="1">
          <mxGeometry x="40" y="56.50000000000003" width="70" height="37" as="geometry" />
        </mxCell>
        <mxCell id="GFOZkpKY2ZgL8WLPGmoW-12" value="Baseline Comparison" style="whiteSpace=wrap;html=1;rounded=1;shadow=0;fontFamily=Verdana;fontSize=8;strokeWidth=1;fillColor=#ffe6cc;strokeColor=#d79b00;" parent="2b4e8129b02d487f-4" vertex="1">
          <mxGeometry x="150" y="28" width="70" height="37.5" as="geometry" />
        </mxCell>
        <mxCell id="GFOZkpKY2ZgL8WLPGmoW-57" value="T-SNE" style="edgeStyle=orthogonalEdgeStyle;rounded=0;orthogonalLoop=1;jettySize=auto;html=1;exitX=0.5;exitY=1;exitDx=0;exitDy=0;entryX=0.5;entryY=1;entryDx=0;entryDy=0;dashed=1;strokeColor=#000000;" parent="2b4e8129b02d487f-4" source="GFOZkpKY2ZgL8WLPGmoW-19" target="GFOZkpKY2ZgL8WLPGmoW-24" edge="1">
          <mxGeometry relative="1" as="geometry">
            <Array as="points">
              <mxPoint x="345" y="96" />
              <mxPoint x="255" y="96" />
            </Array>
          </mxGeometry>
        </mxCell>
        <mxCell id="GFOZkpKY2ZgL8WLPGmoW-19" value="Study of the Imapct of KG" style="rounded=1;whiteSpace=wrap;html=1;shadow=0;labelBackgroundColor=none;strokeWidth=1;fontFamily=Verdana;fontSize=8;align=center;fillColor=#ffe6cc;strokeColor=#d79b00;" parent="2b4e8129b02d487f-4" vertex="1">
          <mxGeometry x="310" y="39.25" width="70" height="37" as="geometry" />
        </mxCell>
        <mxCell id="GFOZkpKY2ZgL8WLPGmoW-24" value="Visulization" style="rounded=1;whiteSpace=wrap;html=1;shadow=0;labelBackgroundColor=none;strokeWidth=1;fontFamily=Verdana;fontSize=8;align=center;fillColor=#ffe6cc;strokeColor=#d79b00;" parent="2b4e8129b02d487f-4" vertex="1">
          <mxGeometry x="230" y="39.25" width="70" height="37" as="geometry" />
        </mxCell>
        <mxCell id="hMXPoq0rUOks4ZIrgKfc-20" value="Parameter &amp;nbsp;Sensitivity" style="whiteSpace=wrap;html=1;rounded=1;shadow=0;fontFamily=Verdana;fontSize=8;strokeWidth=1;fillColor=#ffe6cc;strokeColor=#d79b00;" vertex="1" parent="2b4e8129b02d487f-4">
          <mxGeometry x="150" y="93.5" width="70" height="37.5" as="geometry" />
        </mxCell>
        <mxCell id="2b4e8129b02d487f-24" style="edgeStyle=orthogonalEdgeStyle;rounded=0;html=1;labelBackgroundColor=none;startArrow=none;startFill=0;startSize=5;endArrow=classicThin;endFill=1;endSize=5;jettySize=auto;orthogonalLoop=1;strokeWidth=1;fontFamily=Verdana;fontSize=8" parent="2b4e8129b02d487f-1" source="2b4e8129b02d487f-6" target="2b4e8129b02d487f-12" edge="1">
          <mxGeometry relative="1" as="geometry" />
        </mxCell>
        <mxCell id="GFOZkpKY2ZgL8WLPGmoW-7" value="" style="endArrow=classic;html=1;exitX=0.5;exitY=1;exitDx=0;exitDy=0;entryX=0.5;entryY=0;entryDx=0;entryDy=0;" parent="2b4e8129b02d487f-1" source="2b4e8129b02d487f-12" target="2b4e8129b02d487f-14" edge="1">
          <mxGeometry width="50" height="50" relative="1" as="geometry">
            <mxPoint x="230" y="360" as="sourcePoint" />
            <mxPoint x="280" y="310" as="targetPoint" />
          </mxGeometry>
        </mxCell>
        <mxCell id="GFOZkpKY2ZgL8WLPGmoW-23" value="" style="endArrow=none;dashed=1;html=1;dashPattern=1 3;strokeWidth=2;entryX=0.5;entryY=1;entryDx=0;entryDy=0;exitX=0.5;exitY=0;exitDx=0;exitDy=0;" parent="2b4e8129b02d487f-1" source="GFOZkpKY2ZgL8WLPGmoW-19" target="zZcNKYi_-tcSvA1h87jL-5" edge="1">
          <mxGeometry width="50" height="50" relative="1" as="geometry">
            <mxPoint x="240" y="260" as="sourcePoint" />
            <mxPoint x="290" y="210" as="targetPoint" />
            <Array as="points" />
          </mxGeometry>
        </mxCell>
        <mxCell id="GFOZkpKY2ZgL8WLPGmoW-56" value="Embedding" style="edgeStyle=orthogonalEdgeStyle;orthogonalLoop=1;jettySize=auto;html=1;exitX=0.5;exitY=1;exitDx=0;exitDy=0;entryX=0.5;entryY=0;entryDx=0;entryDy=0;rounded=0;dashed=1;" parent="2b4e8129b02d487f-1" source="zZcNKYi_-tcSvA1h87jL-11" target="GFOZkpKY2ZgL8WLPGmoW-24" edge="1">
          <mxGeometry relative="1" as="geometry" />
        </mxCell>
        <mxCell id="hMXPoq0rUOks4ZIrgKfc-12" style="edgeStyle=orthogonalEdgeStyle;rounded=0;orthogonalLoop=1;jettySize=auto;html=1;exitX=0.5;exitY=1;exitDx=0;exitDy=0;entryX=0.5;entryY=0;entryDx=0;entryDy=0;" edge="1" parent="2b4e8129b02d487f-1" source="2b4e8129b02d487f-14" target="hMXPoq0rUOks4ZIrgKfc-3">
          <mxGeometry relative="1" as="geometry" />
        </mxCell>
        <mxCell id="hMXPoq0rUOks4ZIrgKfc-1" value="Last Stage" style="swimlane;html=1;startSize=20;horizontal=0;fillColor=#f5f5f5;strokeColor=#666666;fontColor=#333333;" vertex="1" parent="2b4e8129b02d487f-1">
          <mxGeometry y="440" width="400" height="150" as="geometry" />
        </mxCell>
        <mxCell id="hMXPoq0rUOks4ZIrgKfc-13" style="edgeStyle=orthogonalEdgeStyle;rounded=0;orthogonalLoop=1;jettySize=auto;html=1;exitX=1;exitY=0.5;exitDx=0;exitDy=0;" edge="1" parent="hMXPoq0rUOks4ZIrgKfc-1" source="hMXPoq0rUOks4ZIrgKfc-3" target="hMXPoq0rUOks4ZIrgKfc-5">
          <mxGeometry relative="1" as="geometry" />
        </mxCell>
        <mxCell id="hMXPoq0rUOks4ZIrgKfc-3" value="Model Improvements" style="rounded=1;whiteSpace=wrap;html=1;shadow=0;labelBackgroundColor=none;strokeWidth=1;fontFamily=Verdana;fontSize=8;align=center;fillColor=#dae8fc;strokeColor=#6c8ebf;" vertex="1" parent="hMXPoq0rUOks4ZIrgKfc-1">
          <mxGeometry x="40" y="39.25000000000003" width="70" height="37" as="geometry" />
        </mxCell>
        <mxCell id="hMXPoq0rUOks4ZIrgKfc-24" style="edgeStyle=orthogonalEdgeStyle;rounded=0;orthogonalLoop=1;jettySize=auto;html=1;exitX=0.5;exitY=1;exitDx=0;exitDy=0;entryX=0.5;entryY=0;entryDx=0;entryDy=0;" edge="1" parent="hMXPoq0rUOks4ZIrgKfc-1" source="hMXPoq0rUOks4ZIrgKfc-5" target="hMXPoq0rUOks4ZIrgKfc-23">
          <mxGeometry relative="1" as="geometry" />
        </mxCell>
        <mxCell id="hMXPoq0rUOks4ZIrgKfc-5" value="Incorporating Context-specific&amp;nbsp;&lt;br&gt;information" style="whiteSpace=wrap;html=1;rounded=1;shadow=0;fontFamily=Verdana;fontSize=8;strokeWidth=1;fillColor=#ffe6cc;strokeColor=#d79b00;" vertex="1" parent="hMXPoq0rUOks4ZIrgKfc-1">
          <mxGeometry x="165" y="39.25" width="70" height="37.5" as="geometry" />
        </mxCell>
        <mxCell id="hMXPoq0rUOks4ZIrgKfc-17" value="" style="edgeStyle=orthogonalEdgeStyle;rounded=0;orthogonalLoop=1;jettySize=auto;html=1;" edge="1" parent="hMXPoq0rUOks4ZIrgKfc-1" source="hMXPoq0rUOks4ZIrgKfc-14" target="hMXPoq0rUOks4ZIrgKfc-16">
          <mxGeometry relative="1" as="geometry" />
        </mxCell>
        <mxCell id="hMXPoq0rUOks4ZIrgKfc-14" value="Extra-level of edge classification" style="whiteSpace=wrap;html=1;rounded=1;shadow=0;fontFamily=Verdana;fontSize=8;strokeWidth=1;fillColor=#ffe6cc;strokeColor=#d79b00;" vertex="1" parent="hMXPoq0rUOks4ZIrgKfc-1">
          <mxGeometry x="290" y="39.25" width="70" height="37.5" as="geometry" />
        </mxCell>
        <mxCell id="hMXPoq0rUOks4ZIrgKfc-15" value="" style="edgeStyle=orthogonalEdgeStyle;rounded=0;orthogonalLoop=1;jettySize=auto;html=1;" edge="1" parent="hMXPoq0rUOks4ZIrgKfc-1" source="hMXPoq0rUOks4ZIrgKfc-5" target="hMXPoq0rUOks4ZIrgKfc-14">
          <mxGeometry relative="1" as="geometry" />
        </mxCell>
        <mxCell id="hMXPoq0rUOks4ZIrgKfc-16" value="&lt;font style=&quot;font-size: 7px&quot;&gt;Each edge represents a SL relationship under one tumor&lt;/font&gt;" style="whiteSpace=wrap;html=1;rounded=1;shadow=0;fontFamily=Verdana;fontSize=8;strokeWidth=1;fillColor=#ffe6cc;strokeColor=#d79b00;" vertex="1" parent="hMXPoq0rUOks4ZIrgKfc-1">
          <mxGeometry x="290" y="90" width="70" height="37.5" as="geometry" />
        </mxCell>
        <mxCell id="hMXPoq0rUOks4ZIrgKfc-23" value="DepMap" style="rounded=1;whiteSpace=wrap;html=1;shadow=0;labelBackgroundColor=none;strokeWidth=1;fontFamily=Verdana;fontSize=8;align=center;fillColor=#f8cecc;strokeColor=#b85450;" vertex="1" parent="hMXPoq0rUOks4ZIrgKfc-1">
          <mxGeometry x="165" y="97.5" width="75" height="32.5" as="geometry" />
        </mxCell>
      </root>
    </mxGraphModel>
  </diagram>
</mxfile>
